<svg xmlns="http://www.w3.org/2000/svg" id="burger-menu" viewBox="0 0 18 13">
  <path d="M17.25 7.25H0.75C0.551088 7.25 0.360322 7.17098 0.21967 7.03033C0.0790178 6.88968 0 6.69891 0 6.5C0 6.30109 0.0790178 6.11032 0.21967 5.96967C0.360322 5.82902 0.551088 5.75 0.75 5.75H17.25C17.4489 5.75 17.6397 5.82902 17.7803 5.96967C17.921 6.11032 18 6.30109 18 6.5C18 6.69891 17.921 6.88968 17.7803 7.03033C17.6397 7.17098 17.4489 7.25 17.25 7.25Z" fill="currentColor"/>
  <path d="M17.25 2H0.75C0.551088 2 0.360322 1.92098 0.21967 1.78033C0.0790178 1.63968 0 1.44891 0 1.25C0 1.05109 0.0790178 0.860322 0.21967 0.71967C0.360322 0.579018 0.551088 0.5 0.75 0.5H17.25C17.4489 0.5 17.6397 0.579018 17.7803 0.71967C17.921 0.860322 18 1.05109 18 1.25C18 1.44891 17.921 1.63968 17.7803 1.78033C17.6397 1.92098 17.4489 2 17.25 2Z" fill="currentColor"/>
  <path d="M17.25 12.5H0.75C0.551088 12.5 0.360322 12.421 0.21967 12.2803C0.0790178 12.1397 0 11.9489 0 11.75C0 11.5511 0.0790178 11.3603 0.21967 11.2197C0.360322 11.079 0.551088 11 0.75 11H17.25C17.4489 11 17.6397 11.079 17.7803 11.2197C17.921 11.3603 18 11.5511 18 11.75C18 11.9489 17.921 12.1397 17.7803 12.2803C17.6397 12.421 17.4489 12.5 17.25 12.5Z" fill="currentColor"/>
</svg>