<svg width="151" height="33" viewBox="0 0 151 33" fill="none" xmlns="http://www.w3.org/2000/svg">
<g clip-path="url(#clip0_61_39909)">
<path d="M52.5757 14.9038H42.6184V18.0962H52.5757V14.9038Z" fill="#F26727"/>
<path d="M48.0151 26.3052C47.4831 26.3052 46.875 26.2292 46.3429 26.1532C39.4261 25.1651 35.3975 18.1722 34.6375 16.7281L35.7016 16.196C36.1576 17.0321 40.0341 24.025 46.4949 25.0131C47.027 25.0891 47.4831 25.0891 48.0151 25.0891V26.3052Z" fill="#7FCBCD"/>
<path d="M42.6185 8.74706L42.3904 8.291C37.8299 10.7993 35.1695 15.7399 34.7135 16.7281L34.2574 17.7162L33.7253 17.4881L33.4973 17.9442L35.3215 18.7803L36.1576 16.9561C36.6137 16.044 40.3382 9.58316 46.2669 8.44302L46.1149 7.4549C44.8987 7.68292 43.6826 8.13898 42.6185 8.74706Z" fill="#F26727"/>
<path d="M21.944 8.21499L22.0961 7.98697C20.8039 7.30288 19.4357 6.84682 18.0676 6.6188C17.5355 6.54279 16.9274 6.54279 16.3954 6.54279C11.9108 6.54279 7.9583 9.20312 6.43811 13.2316L7.88229 13.7637C9.17445 10.3433 12.5949 8.06298 16.3954 8.06298C16.8514 8.06298 17.3835 8.06298 17.8395 8.13899C20.4239 8.51903 22.9322 9.96321 25.2125 12.3195L26.0486 11.4834C24.9844 10.3433 23.5402 9.12711 21.944 8.21499Z" fill="#A5F2EE"/>
<path d="M11.4547 26.1532C7.65419 24.329 5.14587 20.6045 5.14587 16.5C5.14587 14.4477 5.75395 12.4715 6.89409 10.7233C7.35015 10.0392 7.80621 9.43111 8.41428 8.89905L9.09837 9.65914C8.5663 10.1912 8.11024 10.7233 7.7302 11.3314C6.66606 12.8515 6.134 14.6758 6.134 16.5C6.134 20.2245 8.33827 23.5689 11.9107 25.2411L11.4547 26.1532Z" fill="#7FCBCD"/>
<path d="M30.2291 17.7922L29.7731 16.728C29.6971 16.652 29.6971 16.576 29.6211 16.424C28.861 17.8682 24.7565 25.0891 18.0676 26.0012C17.5356 26.0772 16.9275 26.2292 16.3954 26.2292C14.7992 26.2292 13.355 25.9252 11.9109 25.2411L11.3788 26.1532C12.899 26.9133 14.5712 27.2174 16.3194 27.2174C16.9275 27.2174 17.5356 27.1414 18.1436 27.0653C24.6804 26.2292 28.785 20.3765 30.2291 17.7922Z" fill="#7FCBCD"/>
<path d="M31.5972 22.7328C30.305 24.481 28.8608 26.0772 27.2646 27.2933L27.6447 27.7494C29.1649 26.5332 30.6091 25.0131 31.9012 23.2648C34.5616 26.9133 39.0461 31.2458 45.4309 32.1579L45.5829 31.0938C38.9701 30.1817 34.5616 25.4691 31.9772 21.5166C31.9012 21.3646 31.5972 22.7328 31.5972 22.7328Z" fill="#F26727"/>
<path d="M30.761 17.5641L30.2289 17.7922L29.7729 16.728C29.4689 16.0439 28.1767 13.7637 26.1244 11.5594L25.2883 12.3955C27.1126 14.2957 28.1767 16.196 28.5567 16.8801L30.0769 19.6164L31.3691 18.8563L30.761 17.5641Z" fill="#F26727"/>
<path d="M34.1056 19.0083L30.6852 17.3361L31.5213 15.5879C32.0534 14.4478 34.0296 10.5713 37.602 7.45488L39.0462 6.16272L41.5545 9.05108L40.1104 10.4193C37.07 13.0796 35.3218 16.652 34.9417 17.2601L34.1056 19.0083Z" fill="#0CA1A6"/>
<path d="M9.09815 9.65914L8.41406 8.89904C10.5423 6.9228 13.3547 5.78265 16.3951 5.78265C17.0031 5.78265 17.6112 5.85866 18.1433 5.93467C19.5875 6.1627 21.0316 6.61876 22.3998 7.37885L21.8677 8.29097C20.5756 7.60688 19.2834 7.15083 17.9913 6.99881C17.4592 6.9228 16.9271 6.84679 16.3191 6.84679C13.6587 6.84679 11.0744 7.83491 9.09815 9.65914Z" fill="#006D70"/>
<path d="M2.02942 16.5H1.34534C1.34534 12.6235 2.94154 8.97505 5.8299 6.23871L6.28596 6.69477C3.4736 9.27909 2.02942 12.7755 2.02942 16.5Z" fill="#006D70"/>
<path d="M27.1126 5.63062C24.5282 3.57836 21.7159 2.36221 18.7515 1.90615C17.9914 1.83014 17.1553 1.75413 16.3952 1.75413C13.2788 1.75413 10.3145 2.59024 7.80615 4.26245L7.3501 3.57836C10.0104 1.83014 13.1268 0.91803 16.3952 0.91803C17.2313 0.91803 18.0674 0.994039 18.8275 1.07005C21.9439 1.52611 24.9083 2.81827 27.5686 4.94653L27.1126 5.63062Z" fill="#006D70"/>
<path d="M34.9416 11.4074L33.7255 10.4953C36.0818 7.37887 40.1103 3.57839 45.811 2.74229C46.5711 2.66628 47.3312 2.59027 48.0152 2.59027C49.9155 2.59027 51.8157 2.97032 53.5639 3.6544L53.0319 5.02257C51.4357 4.4145 49.7635 4.11046 48.0152 4.11046C47.3312 4.11046 46.6471 4.18647 45.963 4.26248C40.7943 4.94657 37.1459 8.51901 34.9416 11.4074Z" fill="#7FCBCD"/>
<path d="M32.5852 13.8397L30.913 13.1556L31.369 11.9394L31.445 11.8634C33.5733 8.51902 38.2859 2.66629 45.5828 1.60215C46.3429 1.52614 47.179 1.45013 48.0151 1.45013V3.19835C47.331 3.19835 46.5709 3.27436 45.8868 3.35037C39.578 4.26249 35.3975 8.97507 33.0412 12.7755L32.5852 13.8397Z" fill="#7FCBCD"/>
<path d="M58.8086 6.01067C55.9203 3.27432 52.1198 1.75413 48.0153 1.75413C47.2552 1.75413 46.4191 1.83014 45.659 1.90615L45.507 1.07005C46.3431 0.91803 47.1792 0.91803 47.9393 0.91803C52.2718 0.91803 56.3003 2.51423 59.2647 5.40259L58.8086 6.01067Z" fill="#F26727"/>
<path d="M58.8086 26.7613C55.9203 29.4976 52.1198 31.0178 48.0153 31.0178C47.2552 31.0178 46.4191 30.9418 45.659 30.8658L45.507 31.7019C46.3431 31.8539 47.1792 31.8539 47.9393 31.8539C52.2718 31.8539 56.3003 30.2577 59.2647 27.3694L58.8086 26.7613Z" fill="#006D70"/>
<path d="M18.5236 29.6496L18.2196 27.5213C26.8847 26.3052 31.1412 16.2719 31.2172 16.1199C31.4453 15.6639 36.0058 4.7945 45.8871 3.42633L46.1911 5.5546C37.526 6.77075 33.2695 16.804 33.1935 16.956C33.0415 17.4121 28.4049 28.2054 18.5236 29.6496Z" fill="#A5F2EE"/>
<path d="M9.47834 27.4454L10.3905 25.8492C12.7467 27.2174 15.4071 27.6734 18.1434 27.2934L18.4475 29.1936C20.2717 28.9656 22.0199 28.2815 23.6921 27.3694L22.0959 24.6331C20.8038 25.3932 19.3596 25.8492 17.9914 26.0772C17.4593 26.1532 16.9273 26.2293 16.3952 26.2293C13.6589 26.2293 11.0745 25.2411 9.1743 23.4169C8.26219 22.5048 7.50209 21.5167 7.04603 20.3765L4.30969 21.5927C4.99378 23.1129 5.90589 24.405 7.12204 25.6212L6.97003 25.5452C7.73012 26.3053 8.56623 26.9133 9.47834 27.4454Z" fill="#F26727"/>
<path d="M16.3953 30.1057C12.5948 30.1057 9.0984 28.7375 6.36206 26.1532L6.97014 25.5451C9.47845 27.9014 12.8229 29.2696 16.3953 29.2696C17.0794 29.2696 17.7635 29.1936 18.4476 29.1176C25.5925 28.1295 29.849 22.0487 31.8252 18.5523L32.2813 17.4121L33.0414 17.7161L32.5093 18.9323C30.5331 22.5808 25.9725 28.8895 18.5236 29.9537C17.8395 30.0297 17.1554 30.1057 16.3953 30.1057Z" fill="#006D70"/>
<path d="M16.3953 32.462C11.9868 32.462 7.88226 30.7898 4.76587 27.8254L5.90601 26.6853C8.71836 29.3456 12.4428 30.8658 16.3953 30.8658C17.1554 30.8658 17.9155 30.7898 18.6756 30.7138C21.64 30.2577 24.4523 29.0416 26.9606 26.9893L27.9488 28.2055C25.2124 30.4858 22.096 31.8539 18.9036 32.31C18.0675 32.386 17.2314 32.462 16.3953 32.462Z" fill="#006D70"/>
<path d="M18.7516 31.1698L18.5236 29.8017C24.9084 28.8895 29.1649 24.1009 31.5972 20.3005C31.6732 20.1484 32.3573 19.0083 32.5853 18.5522L33.8015 19.1603C33.4974 19.6924 32.8133 20.9085 32.8133 20.9846C30.229 25.1651 25.6685 30.1817 18.7516 31.1698Z" fill="#A5F2EE"/>
<path d="M9.55435 27.3693C5.60186 25.0891 3.16956 20.9845 3.16956 16.5C3.16956 15.8159 3.24557 15.2078 3.32157 14.5237L4.3097 14.6758C4.23369 15.2838 4.15768 15.8919 4.15768 16.5C4.15768 20.6045 6.36195 24.405 10.0104 26.5332L9.55435 27.3693Z" fill="#A5F2EE"/>
<path d="M4.76584 14.7518L2.8656 14.5237C3.39767 11.1033 5.2979 8.06292 8.18627 6.01066C11.1506 3.88239 14.7991 3.04629 18.5236 3.57836C19.3597 3.73038 20.1958 3.88239 21.0319 4.18643L20.4238 6.01066C19.7397 5.78263 18.9796 5.63061 18.2955 5.47859C11.6827 4.49047 5.75396 8.59498 4.76584 14.7518Z" fill="#F26727"/>
<path d="M42.1624 24.7851L42.0104 25.0131C43.3025 25.6972 44.6707 26.1532 46.0389 26.3813C46.5709 26.4573 47.179 26.5333 47.7111 26.5333C52.1956 26.5333 56.1481 23.8729 57.6683 19.8444L56.2241 19.3124C54.932 22.7328 51.5876 25.0131 47.7111 25.0131C47.255 25.0131 46.7229 25.0131 46.2669 24.9371C43.6826 24.557 41.1742 23.1129 38.894 20.7566L38.0579 21.5927C39.122 22.6568 40.5662 23.8729 42.1624 24.7851Z" fill="#7FCBCD"/>
<path d="M55.0082 23.3408L55.6923 24.1009C53.564 26.1532 50.7517 27.2173 47.7113 27.2173C47.1032 27.2173 46.4951 27.1413 45.9631 27.0653C44.5189 26.8373 43.0747 26.3812 41.7065 25.6211L42.2386 24.709C43.5308 25.3931 44.8229 25.8491 46.1151 26.0012C46.6472 26.0772 47.1792 26.1532 47.7873 26.1532C50.5236 26.2292 53.108 25.165 55.0082 23.3408Z" fill="#F26727"/>
<path d="M62.1529 16.5H62.761C62.761 20.3765 61.1648 24.0249 58.3524 26.7613L57.8964 26.3052C60.6327 23.7209 62.1529 20.2245 62.1529 16.5Z" fill="#006D70"/>
<path d="M59.3407 18.2482L61.2409 18.5522C60.7088 21.9726 58.8086 25.013 55.9202 27.0653C52.9559 29.1935 49.3074 30.0296 45.5829 29.4976C44.7468 29.3456 43.9107 29.1935 43.1506 28.8895L43.7587 27.0653C44.4428 27.2933 45.2029 27.4453 45.887 27.5973C52.4238 28.5095 58.3525 24.4049 59.3407 18.2482Z" fill="#A5F2EE"/>
<path d="M16.3953 31.3979C12.2908 31.3979 8.4143 29.8777 5.52594 27.0653C2.86561 24.557 1.26941 21.2126 1.04138 17.6401V16.576L2.40955 16.5V17.5641C2.63758 20.8325 4.08176 23.7969 6.51407 26.1532C9.1744 28.6615 12.6708 30.1057 16.3953 30.1057C17.0794 30.1057 17.8395 30.0297 18.5996 29.9537L18.8276 31.3219C17.9915 31.3219 17.1554 31.3979 16.3953 31.3979Z" fill="#A5F2EE"/>
<path d="M22.7802 26.5332L22.3241 25.7731L22.7041 25.5451C27.5688 22.7327 30.3051 17.3361 30.8372 16.3479L30.9892 15.9679L31.7493 16.3479L31.5973 16.728C31.0652 17.7921 28.2528 23.4168 23.0842 26.3052L22.7802 26.5332Z" fill="#006D70"/>
<path d="M33.5733 15.9679C33.4973 15.8919 33.1932 15.1318 32.6612 14.0677L32.8892 13.9157C30.8369 10.1912 26.2764 3.80642 18.5994 2.74229C17.8393 2.66628 17.0792 2.59027 16.3951 2.59027V4.03445C17.0792 4.03445 17.7633 4.11046 18.4474 4.18647C19.2835 4.33849 20.0436 4.49051 20.8037 4.71854L20.2716 6.39075C27.3405 8.67103 30.8369 16.9561 30.913 17.0321C31.141 17.4881 35.7776 28.5095 45.8868 29.9537L46.2669 26.9893C37.8298 25.8492 33.6493 16.044 33.5733 15.9679Z" fill="#0CA1A6"/>
<path d="M18.0673 11.4834H14.8749V21.4406H18.0673V11.4834Z" fill="#0CA1A6"/>
<path d="M21.4879 14.9038H11.5306V18.0962H21.4879V14.9038Z" fill="#F26727"/>
<path d="M64.2812 17.9442L62.989 17.7922C63.065 17.3361 63.065 16.8801 63.065 16.424C63.065 12.4715 61.4688 8.82308 58.6565 6.08674L59.5686 5.17462C62.685 8.13899 64.4332 12.1675 64.4332 16.424C64.3572 16.9561 64.3572 17.4882 64.2812 17.9442Z" fill="#006D70"/>
<path d="M59.9488 18.7043L59.1126 18.5522C59.2647 17.8682 59.3407 17.1841 59.3407 16.5C59.3407 13.6116 58.2005 10.9513 56.0723 8.89903L56.6803 8.29095C58.9606 10.4952 60.2528 13.3836 60.2528 16.5C60.1768 17.2601 60.1008 17.9442 59.9488 18.7043Z" fill="#A5F2EE"/>
<path d="M58.5045 18.9323L56.6043 18.4763C56.7563 17.8682 56.8323 17.1841 56.8323 16.576C56.8323 12.0155 52.8798 8.36702 48.0912 8.36702C47.6352 8.36702 47.1031 8.36701 46.6471 8.44302C46.495 8.44302 46.419 8.51903 46.267 8.51903L45.887 6.54279C46.039 6.54279 46.191 6.46678 46.343 6.46678C46.9511 6.39077 47.4832 6.31476 48.0152 6.31476C53.944 6.31476 58.7326 10.8753 58.7326 16.5C58.8086 17.3361 58.6566 18.0962 58.5045 18.9323Z" fill="#F26727"/>
<path d="M48.0154 30.5617C47.2553 30.5617 46.4952 30.4857 45.7351 30.4097C42.3907 29.9536 39.2743 28.3574 36.4619 25.7731L37.6781 24.481C40.1864 26.8373 42.9987 28.2054 45.9631 28.6615C46.7992 28.7375 47.5593 28.8135 48.3954 28.8135L48.4714 30.5617H48.0154Z" fill="#A5F2EE"/>
<path d="M70.2101 13.3076L73.9726 1.22211H77.3322L81.2239 13.3076H78.0011L77.3322 10.8905H73.8433L73.1744 13.3076H70.2177H70.2101ZM75.5764 4.04206L74.5046 8.47341H76.7849L75.5764 4.04206Z" fill="#00979D"/>
<path d="M82.2957 1.22211H87.1299C90.4895 1.22211 91.8273 2.83351 91.8273 5.25061C91.8273 6.86201 91.1584 8.07056 89.813 8.87626L92.0933 13.3076H88.6045L86.8563 9.41593H85.2449V13.3076H82.2881V1.22211H82.2957ZM88.6045 5.25061C88.6045 4.17888 88.2016 3.63921 86.8563 3.63921H85.2449V7.12805H86.8563C87.928 6.99123 88.6045 6.58838 88.6045 5.25061Z" fill="#00979D"/>
<path d="M93.7047 1.22208H97.7332C102.294 1.22208 103.776 3.37315 103.776 7.12802C103.776 9.94797 102.833 13.3 97.87 13.3H93.8415L93.7047 1.21448V1.22208ZM96.6615 3.63918V10.8905H97.7332C100.15 10.8905 100.416 9.27909 100.416 7.40165C100.416 5.12137 100.15 3.776 97.5964 3.776H96.6539V3.63918H96.6615Z" fill="#00979D"/>
<path d="M112.091 1.22211H114.911V9.1423C114.911 12.6311 112.091 13.4368 110.077 13.4368C107.926 13.4368 105.38 12.768 105.38 9.1423V1.22211H108.336V8.61023C108.336 10.6245 109.005 11.0273 110.214 11.0273C111.559 11.0273 112.091 10.3584 112.091 8.61023V1.22211Z" fill="#00979D"/>
<path d="M117.062 10.7537H120.148V3.51H117.062V1.0929H126.328V3.51H123.242V10.7537H126.328V13.1708H117.062V10.7537Z" fill="#00979D"/>
<path d="M131.025 13.3076H128.205V1.0929H131.428L135.457 8.3442V1.0929H138.276V13.1784H135.19L131.162 5.39503L131.025 13.3152V13.3076Z" fill="#00979D"/>
<path d="M149.815 7.26484C149.815 10.7537 148.469 13.4368 144.578 13.4368C141.089 13.4368 139.477 11.2857 139.477 7.39405C139.477 3.7684 140.952 1.08527 144.578 1.08527C148.203 1.08527 149.815 2.55985 149.815 7.25724V7.26484ZM146.729 7.26484C146.729 4.30807 146.463 3.50237 144.714 3.50237C143.103 3.50237 142.837 4.44489 142.837 7.39405C142.837 9.81116 143.103 11.0197 144.714 11.0197C146.463 11.0197 146.729 10.0772 146.729 7.25724V7.26484Z" fill="#00979D"/>
<path d="M70.6127 19.6164H74.6412C79.2017 19.6164 80.6839 21.7674 80.6839 25.5223C80.6839 28.3423 79.7414 31.6943 74.778 31.6943H70.7495L70.6127 19.6088V19.6164ZM73.5694 22.0335V29.2848H74.6412C77.0583 29.2848 77.3243 27.6734 77.3243 25.7959C77.3243 23.5157 77.0583 22.1703 74.5044 22.1703H73.5618V22.0335H73.5694Z" fill="#F26727"/>
<path d="M81.0865 31.7018L84.849 19.6163H88.2086L92.1003 31.7018H88.8775L88.2086 29.2847H84.7198L84.0509 31.7018H81.0942H81.0865ZM86.5896 22.5731L85.5179 27.0045H87.7982L86.5896 22.5731Z" fill="#F26727"/>
<path d="M97.9989 24.5874L100.15 19.624H103.107L99.3443 26.8753V31.5727H96.3875V26.8753L92.4958 19.4948H95.7187L97.9989 24.595V24.5874Z" fill="#F26727"/>
<path d="M113.733 22.7708C113.733 21.3646 112.76 20.6045 111.529 20.6045C110.579 20.6045 109.575 21.1746 108.906 21.9119L108.108 20.9238C108.716 20.2549 110.085 19.3124 111.833 19.3124C113.748 19.3124 115.291 20.4525 115.291 22.596C115.291 25.1195 111.947 28.6539 109.461 30.5162H115.884V31.8235H107.523V30.7594C109.819 29.11 113.733 25.1955 113.733 22.7632V22.7708Z" fill="#006D70"/>
<path d="M127.749 25.3323C127.749 28.3499 126.936 32.0212 122.945 32.0212C119.814 32.0212 118.309 29.8397 118.309 25.9024C118.309 22.3908 119.358 19.3124 123.075 19.3124C126.434 19.3124 127.749 21.6459 127.749 25.3323ZM120.756 29.7409L124.42 20.9086C124.025 20.7186 123.546 20.6045 122.961 20.6045C120.437 20.6045 119.844 23.0748 119.844 25.4843C119.844 27.1186 119.981 28.73 120.756 29.7409ZM126.206 25.5452C126.206 24.0858 126.077 22.5276 125.256 21.5547L121.57 30.425C121.973 30.6378 122.459 30.7442 123.067 30.7442C125.705 30.7442 126.199 28.0079 126.199 25.5376L126.206 25.5452Z" fill="#006D70"/>
<path d="M136.422 22.7708C136.422 21.3646 135.449 20.6045 134.218 20.6045C133.268 20.6045 132.264 21.1746 131.595 21.9119L130.797 20.9238C131.405 20.2549 132.774 19.3124 134.522 19.3124C136.437 19.3124 137.98 20.4525 137.98 22.596C137.98 25.1195 134.636 28.6539 132.15 30.5162H138.573V31.8235H130.212V30.7594C132.508 29.11 136.422 25.1955 136.422 22.7632V22.7708Z" fill="#006D70"/>
<path d="M146.243 25.2031C148.424 25.5604 149.739 26.7385 149.739 28.5475C149.739 30.1969 148.561 32.0212 145.292 32.0212C143.582 32.0212 142.1 31.2459 141.705 30.881L142.526 29.6649C143.225 30.2577 144.312 30.729 145.452 30.729C146.843 30.729 148.204 29.9689 148.204 28.5627C148.204 26.7993 146.227 26.0544 143.78 25.9252V24.8991C145.695 24.7471 147.618 23.8729 147.618 22.3528C147.618 21.2354 146.691 20.6273 145.475 20.6273C144.396 20.6273 143.521 21.0606 142.951 21.5167L142.283 20.4525C142.283 20.4525 143.666 19.3124 145.779 19.3124C147.755 19.3124 149.177 20.5285 149.177 22.1019C149.177 23.6753 147.96 24.7775 146.25 25.1955L146.243 25.2031Z" fill="#006D70"/>
<path d="M61.4386 16.5228H60.2529C60.2529 13.262 58.8163 10.138 56.3004 7.95655C53.602 5.61546 49.946 4.57413 46.2595 5.09859L46.0923 3.92804C50.1208 3.35037 54.1189 4.49812 57.0833 7.05964C59.8576 9.46154 61.4462 12.9124 61.4462 16.5152L61.4386 16.5228Z" fill="#F26727"/>
<path d="M4.53786 28.1295C2.78964 26.4573 1.49748 24.481 0.661377 22.3528L2.86565 21.5167C3.62575 23.3409 4.68988 25.0131 6.21007 26.4573L4.53786 28.1295Z" fill="#0CA1A6"/>
<path d="M33.0414 11.1794L31.3691 10.0392C34.0295 6.23874 38.6661 1.52615 45.4309 0.538025L45.7349 2.59028C39.6542 3.42639 35.4737 7.68292 33.0414 11.1794Z" fill="#A5F2EE"/>
<path d="M32.5852 12.0154L31.7491 10.9513C30.3049 8.97506 28.7087 7.22684 27.0365 5.85867L27.7966 4.87054C29.6208 6.31473 31.293 8.13895 32.7372 10.1912L33.5733 11.1793L32.5852 12.0154Z" fill="#7FCBCD"/>
<path d="M39.122 9.35508L38.4379 8.59499C40.7942 6.54273 43.3785 5.25057 46.0388 4.87052C46.6469 4.79452 47.331 4.71851 47.9391 4.71851C51.2075 4.71851 54.3239 5.93466 56.6041 8.13893L55.9201 8.82302C53.8678 6.92278 51.0554 5.78264 48.0151 5.78264C47.407 5.78264 46.7989 5.85865 46.2668 5.93466C43.7585 6.31471 41.3262 7.45485 39.122 9.35508Z" fill="#7FCBCD"/>
<path d="M57.6683 13.8396C57.2122 12.3194 56.3761 10.9513 55.16 9.81112C53.6398 8.36694 51.6635 7.37881 49.5353 7.07477L49.7633 5.7066C52.1956 6.08665 54.3999 7.15079 56.1481 8.74698C57.5163 10.0391 58.5044 11.6353 59.0365 13.3076L57.6683 13.8396Z" fill="white"/>
<path d="M48.8513 27.2173C48.0152 27.2933 47.1031 27.2173 46.267 27.1413C44.2907 26.8373 42.3905 26.0772 40.5662 24.785L40.0342 25.5451C41.9344 26.9133 43.9867 27.7494 46.191 28.0534C46.799 28.1295 47.4831 28.2055 48.0912 28.2055H48.8513V27.2173Z" fill="#006D70"/>
</g>
<defs>
<clipPath id="clip0_61_39909">
<rect width="150.476" height="32" fill="white" transform="translate(0 0.5)"/>
</clipPath>
</defs>
</svg>